<svg width="42" height="71" viewBox="0 0 42 71" fill="none" xmlns="http://www.w3.org/2000/svg">
<g clip-path="url(#clip0_14_2)">
<path d="M0.229993 50.3093V0.425577H21.8593C25.659 0.425577 28.8498 0.937081 31.4317 1.96009C34.0298 2.98309 35.9865 4.42829 37.3018 6.29568C38.6333 8.16307 39.2991 10.3633 39.2991 12.8965C39.2991 14.7314 38.8931 16.404 38.0812 17.9141C37.2855 19.4243 36.1651 20.6908 34.7199 21.7138C33.2747 22.7206 31.5859 23.4189 29.6536 23.8086V24.2957C31.797 24.3769 33.7456 24.9209 35.4993 25.9277C37.2531 26.9182 38.6495 28.2903 39.6888 30.044C40.728 31.7815 41.2477 33.8275 41.2477 36.1821C41.2477 38.9101 40.5332 41.3377 39.1042 43.4649C37.6915 45.5921 35.678 47.2646 33.0636 48.4825C30.4493 49.7004 27.3315 50.3093 23.7104 50.3093H0.229993ZM13.7726 39.4947H20.1055C22.3789 39.4947 24.0839 39.0725 25.2206 38.2281C26.3572 37.3675 26.9256 36.1009 26.9256 34.4283C26.9256 33.2592 26.6576 32.2687 26.1218 31.4568C25.5859 30.6448 24.8227 30.0278 23.8322 29.6056C22.8579 29.1834 21.6806 28.9723 20.3004 28.9723H13.7726V39.4947ZM13.7726 20.5934H19.3261C20.5115 20.5934 21.5589 20.4067 22.4682 20.0332C23.3775 19.6597 24.0839 19.1239 24.5873 18.4256C25.1069 17.7111 25.3667 16.8424 25.3667 15.8194C25.3667 14.2768 24.8146 13.0995 23.7104 12.2876C22.6062 11.4594 21.2097 11.0454 19.521 11.0454H13.7726V20.5934Z" fill="#232F6F"/>
<rect x="0.337601" y="57.9987" width="39.2029" height="13.5366" fill="#232F6F"/>
</g>
<defs>
<clipPath id="clip0_14_2">
<rect width="42" height="71" fill="white"/>
</clipPath>
</defs>
</svg>
